<?xml version="1.0" encoding="UTF-8"?>
<!DOCTYPE svg PUBLIC "-//W3C//DTD SVG 1.1//EN" "http://www.w3.org/Graphics/SVG/1.1/DTD/svg11.dtd">
<!-- Creator: CorelDRAW X5 -->
<svg xmlns="http://www.w3.org/2000/svg" xml:space="preserve" width="210mm" height="52.307mm" style="shape-rendering:geometricPrecision; text-rendering:geometricPrecision; image-rendering:optimizeQuality; fill-rule:evenodd; clip-rule:evenodd"
viewBox="0 0 21000 5231"
 xmlns:xlink="http://www.w3.org/1999/xlink">
 <defs>
  <style type="text/css">
   <![CDATA[
    .fil0 {fill:black}
    .fil1 {fill:#FFA41A}
   ]]>
  </style>
 </defs>
 <g id="Layer_x0020_1">
  <metadata id="CorelCorpID_0Corel-Layer"/>
  <path class="fil0" d="M3468 2472l0 -977c243,0 413,-10 620,108 260,149 312,806 -314,849 -116,8 -199,20 -306,20zm-1054 -1724l0 3909 96 1 0 -251 77 0 0 -96 402 0 0 134 211 0 0 134 192 0 0 77 77 0 0 -1514 711 1130 94 0 0 -249 25 0 1 -89 43 0 1 89 28 0 -2 249 57 0 0 -134 48 4 2 233 136 0 5 146 41 -20 -2 -306 249 0 7 268 36 -1 7 -143 123 -1 0 107 77 0 0 -115 57 0 5 60 72 17 0 -172 116 1c-30,-45 -91,-108 -129,-159l-558 -725c-38,-51 -65,-89 -107,-143 -45,-57 -87,-87 -107,-161 413,-9 843,-536 843,-977 0,-437 -13,-751 -389,-1068 -194,-163 -562,-293 -914,-293l-1571 0c-44,0 -57,13 -57,57z"/>
  <path class="fil0" d="M5499 4618l230 0 0 -230 268 0 0 134 37 0 1 -77 115 0 0 -96 287 0 0 268 236 0 1 -94 261 0 1 36 57 1 0 -192 57 0 192 0 0 -230c240,-56 83,-56 326,0l0 134 57 0 0 -422 -1092 0 0 -690 1015 0 0 -881 -1015 0 0 -709 1073 0 0 -881 -2108 0 0 3928z"/>
  <polygon class="fil0" points="7894,4618 8124,4618 8124,4388 8373,4388 8373,4522 8430,4522 8430,4445 8545,4445 8545,4349 8833,4349 8833,4618 9063,4618 9063,4522 9331,4522 9331,4560 9388,4560 9389,4367 9443,4366 9445,4256 9485,4256 9484,4367 9619,4367 9620,4127 9916,4128 9915,4273 10002,4273 10002,3851 8929,3851 8929,3161 9944,3161 9944,2280 8929,2280 8929,1571 9982,1571 9982,690 7894,690 "/>
  <polygon class="fil0" points="0,690 0,3851 125,3851 126,3794 157,3793 156,3849 211,3851 211,3947 364,3947 364,4292 433,4293 434,4231 631,4234 632,4752 709,4752 708,4617 881,4618 881,4752 958,4752 959,4426 1025,4426 1035,3161 2146,3161 2146,2299 1035,2299 1035,1648 2261,1648 2261,690 "/>
  <path class="fil0" d="M11036 690l0 3162 116 0 2 -146 10 1 -2 145 103 0 0 95 153 0 0 327 230 -1 1 479 100 0 0 -134 168 0 0 134 77 0 0 -326c54,-5 77,0 77,-57l0 -1207 1111 0 0 -862 -1111 0 0 -651 1226 0 0 -958 -2261 0z"/>
  <path class="fil1" d="M14121 1667l211 -153 -19 203 -192 156 0 101 211 -172 0 211 -211 154 0 95 211 -153 0 211 -210 151 0 99 211 -153 0 211 -211 152 0 97 211 -153 0 211 -112 153 -348 1 0 192 233 265 -1 978 69 77 1 136 120 0 0 -211 74 -61 77 64c5,219 4,438 9,658l89 48 18 -921 58 -132 58 -1 0 709 251 -286 2 -1059 265 -284 0 -171 -268 -2 0 -2203 -192 -881c-132,35 -359,300 -422,421 -255,492 -191,603 -191,1246z"/>
  <path class="fil0" d="M16822 2472l0 -977c243,0 413,-10 620,108 260,149 312,806 -314,849 -116,8 -199,20 -306,20zm-1054 -1724l0 3909 95 1 0 -251 77 0 0 -96 402 0 0 134 211 0 0 134 192 0 0 77 77 0 0 -1514 711 1130 94 0 0 -249 25 0 1 -89 43 0 1 89 28 0 -2 249 57 0 0 -134 48 4 2 233 136 0 5 146 41 -20 -2 -306 249 0 7 268 36 -1 7 -143 123 -1 0 107 77 0 0 -115 57 0 5 60 72 17 0 -172 116 1c-30,-45 -91,-108 -129,-159l-558 -725c-38,-51 -65,-89 -107,-143 -45,-57 -87,-87 -107,-161 413,-9 843,-536 843,-977 0,-437 -13,-751 -389,-1068 -194,-163 -562,-293 -914,-293l-1571 0c-44,0 -57,13 -57,57z"/>
  <path class="fil0" d="M18873 4637l230 0 0 -230 268 0 0 134 37 0 1 -77 115 0 0 -96 287 0 0 268 236 0 1 -94 261 0 1 36 57 1 0 -192 57 0 192 0 0 -230c240,-56 83,-56 326,0l0 134 57 0 0 -422 -1092 0 0 -690 1015 0 0 -881 -1015 0 0 -709 1073 0 0 -881 -2108 0 0 3928z"/>
 </g>
</svg>
